<?xml version="1.0" encoding="utf-8"?>
<!-- Generator: Adobe Illustrator 23.0.4, SVG Export Plug-In . SVG Version: 6.00 Build 0)  -->
<svg version="1.1" id="Ebene_1" xmlns="http://www.w3.org/2000/svg" xmlns:xlink="http://www.w3.org/1999/xlink" x="0px" y="0px"
	 viewBox="0 0 344 39" style="enable-background:new 0 0 344 39;" xml:space="preserve">
<style type="text/css">
	.st0{enable-background:new    ;}
	.st1{fill:#FFFFFF;}
	.st2{font-family:'Avenir-Light';}
	.st3{font-size:60px;}
	.st4{letter-spacing:-3;}
	.st5{fill-rule:evenodd;clip-rule:evenodd;fill:#FFFFFF;}
</style>
<title>Group 7</title>
<desc>Created with Sketch.</desc>
<g id="Landing-Page">
	<g id="Desktop-Copy-3" transform="translate(-578.000000, -55.000000)">
		<g id="Logo" transform="translate(578.000000, 31.000000)">
			<g id="Group-7">
				<g class="st0">
					<text transform="matrix(1 0 0 1 0 60)" class="st1 st2 st3 st4">tarot</text>
				</g>
				<path id="Combined-Shape" class="st5" d="M324.9,63c-0.1-0.1-0.2-0.2-0.3-0.2c-0.5-0.5-0.7-1.3-0.7-2.4v-15h4.6v-3.3h-4.6v-5.9
					h-4.4v5.9h-3.9v3.3h3.9v14.9c0,1,0.1,1.9,0.3,2.7h-6.3c0.5-0.9,0.8-2,0.8-3.2c0-1.9-0.8-3.5-2.3-4.6s-3.8-2-6.9-2.7
					c-2.1-0.4-3.5-0.9-4.1-1.5c-0.7-0.6-1-1.3-1-2.3s0.4-1.8,1.2-2.5c0.8-0.7,1.9-1,3.5-1c1,0,2,0.2,2.8,0.5s1.5,0.7,2.1,1.2
					l0.7,2.9h3.4l-0.2-5.4c-1-0.9-2.2-1.5-3.7-2s-3.2-0.7-5-0.7c-2.7,0-4.9,0.7-6.6,2.1c-1.7,1.4-2.6,3.1-2.6,5.1
					c0,1.9,0.8,3.4,2.3,4.5s3.8,2,6.7,2.7c2.1,0.5,3.5,1,4.3,1.7c0.7,0.6,1.1,1.4,1.1,2.4s-0.4,1.9-1.3,2.5
					c-0.2,0.1-0.3,0.2-0.5,0.3h-6.9c-0.4-0.2-0.8-0.4-1.1-0.7l-0.8-3.3H296v4h-4.4l-1.1-1.8c-0.8,0.8-1.8,1.3-3,1.8l0,0h-7
					c-0.7-0.4-1.4-0.9-1.9-1.6c-1.1-1.5-1.7-3.5-1.8-5.8l0.1-0.1h15.9v-2.8c0-3.3-0.9-6-2.6-8s-4.2-3-7.5-3c-2.8,0-5.3,1.2-7.4,3.5
					s-3.1,5.2-3.1,8.7v1c0,3.3,0.8,6,2.4,8.1h-8.1V45.4h5.1v-3.3h-5.1V39c0-1.5,0.3-2.6,1-3.4c0.6-0.8,1.6-1.2,2.9-1.2
					c0.4,0,0.8,0,1.2,0.1c0.4,0,0.7,0.1,1,0.2l0.5-3.4c-0.6-0.2-1.2-0.3-1.7-0.4c-0.5-0.1-1-0.1-1.6-0.1c-2.4,0-4.4,0.7-5.7,2.1
					c-1.4,1.4-2.1,3.5-2.1,6.1v3.1h-3.8v3.3h3.8V63h-8.1V42.1h-8.2V45l3.7,0.6V63h-8.3V51.2c0-3.2-0.7-5.6-2.2-7.2
					c-1.5-1.5-3.5-2.3-6.1-2.3c-1.6,0-3,0.4-4.2,1.1c-1.2,0.7-2.3,1.7-3.1,3l-0.3-3.7h-7.7V45l3.7,0.6V63H215c0-0.1,0-0.2,0-0.4
					c0-0.3,0-0.6,0-0.9V49.9c0-2.6-0.9-4.7-2.6-6.1c-1.7-1.4-4-2.1-6.8-2.1c-1.9,0-3.6,0.3-5.2,0.8c-1.6,0.5-2.9,1.3-4.1,2.1v4.8
					h3.4l0.5-2.6c0.5-0.5,1.2-0.9,2.1-1.2c0.9-0.3,1.8-0.4,3-0.4c1.6,0,2.9,0.4,3.8,1.3c0.9,0.8,1.4,2,1.4,3.4v2.9h-4.6
					c-3.3,0-5.9,0.6-7.7,1.9c-1.9,1.3-2.8,3.1-2.8,5.4c0,1.1,0.2,2.1,0.5,3h-5.4V52c0-3.4-0.7-6-2.2-7.7s-3.4-2.6-5.9-2.6
					c-1.7,0-3.2,0.4-4.4,1.2c-1.3,0.8-2.3,1.9-3.1,3.3c-0.6-1.5-1.5-2.6-2.6-3.4c-1.2-0.8-2.6-1.1-4.2-1.1s-3.1,0.3-4.3,1
					s-2.3,1.5-3,2.7l-0.3-3.2h-7.7V45l3.7,0.6V63h-16V24H344v39H324.9z M236.7,63h-11V48.8c0.6-1.1,1.4-1.9,2.4-2.5s2.1-0.9,3.4-0.9
					c1.8,0,3.1,0.5,3.9,1.4c0.9,0.9,1.3,2.4,1.3,4.6L236.7,63L236.7,63z M206.4,63h-4.9c-0.3-0.1-0.5-0.3-0.7-0.5
					c-0.7-0.6-1-1.4-1-2.5c0-1.2,0.5-2.2,1.6-3.1c1.1-0.8,2.5-1.3,4.3-1.3h4.8v4c-0.5,1-1.4,1.9-2.6,2.6
					C207.4,62.6,206.9,62.8,206.4,63z M185.9,63h-10.3V51.1c0.2-1.7,0.7-3,1.6-4.1c0.9-1.1,2.2-1.6,3.8-1.6s2.9,0.5,3.7,1.5
					s1.2,2.7,1.2,5.1V63z M171.1,63h-10.4V48.5c0.5-1,1.1-1.8,2-2.4s2-0.8,3.4-0.8c1.6,0,2.9,0.5,3.7,1.6s1.3,2.7,1.3,5V63z
					 M253.9,35.8v-4.6h-4.5v4.6H253.9z M282.7,45.2c1.8,0,3.2,0.6,4.2,1.8c0.9,1.2,1.4,2.6,1.4,4.4V52H277v-0.1
					c0.2-1.9,0.9-3.5,1.9-4.8C280,45.8,281.2,45.2,282.7,45.2z"/>
			</g>
		</g>
	</g>
</g>
</svg>
